<svg width="2063" height="1047" viewBox="0 0 2063 1047" fill="none" xmlns="http://www.w3.org/2000/svg">
<path d="M286.426 639L107.324 249.01V558.678C107.324 587.161 110.4 604.934 116.553 611.998C124.984 621.568 138.314 626.354 156.543 626.354H172.949V639H11.6211V626.354H28.0273C47.6237 626.354 61.5234 620.429 69.7266 608.58C74.7396 601.288 77.2461 584.654 77.2461 558.678V255.846C77.2461 235.338 74.9674 220.527 70.4102 211.412C67.2201 204.804 61.2956 199.335 52.6367 195.006C44.2057 190.449 30.5339 188.17 11.6211 188.17V175.523H142.871L311.035 538.17L476.465 175.523H607.715V188.17H591.65C571.826 188.17 557.812 194.094 549.609 205.943C544.596 213.235 542.09 229.869 542.09 255.846V558.678C542.09 587.161 545.28 604.934 551.66 611.998C560.091 621.568 573.421 626.354 591.65 626.354H607.715V639H410.84V626.354H427.246C447.07 626.354 460.97 620.429 468.945 608.58C473.958 601.288 476.465 584.654 476.465 558.678V249.01L297.705 639H286.426ZM878.76 164.928C938.916 164.928 990.983 187.828 1034.96 233.629C1079.17 279.202 1101.27 336.168 1101.27 404.527C1101.27 474.938 1079.05 533.385 1034.62 579.869C990.186 626.354 936.41 649.596 873.291 649.596C809.489 649.596 755.827 626.923 712.305 581.578C669.01 536.233 647.363 477.558 647.363 405.553C647.363 331.952 672.428 271.91 722.559 225.426C766.081 185.094 818.148 164.928 878.76 164.928ZM872.266 189.879C830.794 189.879 797.526 205.26 772.461 236.021C741.243 274.303 725.635 330.357 725.635 404.186C725.635 479.837 741.813 538.056 774.17 578.844C799.007 609.833 831.82 625.328 872.607 625.328C916.13 625.328 952.018 608.352 980.273 574.4C1008.76 540.449 1023 486.9 1023 413.756C1023 334.459 1007.39 275.328 976.172 236.363C951.107 205.374 916.471 189.879 872.266 189.879ZM1140.58 639V626.354H1158.01C1177.6 626.354 1191.5 620.087 1199.71 607.555C1204.72 600.035 1207.23 583.173 1207.23 556.969V257.555C1207.23 228.616 1204.04 210.501 1197.66 203.209C1188.77 193.183 1175.55 188.17 1158.01 188.17H1140.58V175.523H1329.25C1398.52 175.523 1451.16 183.385 1487.16 199.107C1523.39 214.83 1552.44 241.035 1574.32 277.721C1596.42 314.407 1607.47 356.79 1607.47 404.869C1607.47 469.355 1587.87 523.245 1548.68 566.539C1504.7 614.846 1437.71 639 1347.71 639H1140.58ZM1272.85 605.504C1301.79 611.884 1326.06 615.074 1345.65 615.074C1398.52 615.074 1442.38 596.503 1477.25 559.361C1512.11 522.219 1529.54 471.861 1529.54 408.287C1529.54 344.257 1512.11 293.785 1477.25 256.871C1442.38 219.957 1397.61 201.5 1342.92 201.5C1322.41 201.5 1299.06 204.804 1272.85 211.412V605.504ZM1780.76 200.816V384.02H1882.62C1909.05 384.02 1926.71 380.032 1935.6 372.057C1947.44 361.575 1954.05 343.118 1955.42 316.686H1968.07V478.014H1955.42C1952.23 455.455 1949.04 440.986 1945.85 434.605C1941.75 426.63 1935.03 420.364 1925.68 415.807C1916.34 411.249 1901.99 408.971 1882.62 408.971H1780.76V561.754C1780.76 582.262 1781.67 594.794 1783.5 599.352C1785.32 603.681 1788.51 607.213 1793.07 609.947C1797.62 612.454 1806.28 613.707 1819.04 613.707H1897.66C1923.86 613.707 1942.89 611.884 1954.74 608.238C1966.59 604.592 1977.98 597.415 1988.92 586.705C2003.04 572.577 2017.51 551.272 2032.32 522.789H2046L2006.01 639H1648.83V626.354H1665.23C1676.17 626.354 1686.54 623.733 1696.34 618.492C1703.63 614.846 1708.53 609.378 1711.04 602.086C1713.77 594.794 1715.14 579.869 1715.14 557.311V256.188C1715.14 226.793 1712.17 208.678 1706.25 201.842C1698.05 192.727 1684.38 188.17 1665.23 188.17H1648.83V175.523H2006.01L2011.13 277.037H1997.8C1993.02 252.656 1987.66 235.908 1981.74 226.793C1976.04 217.678 1967.5 210.729 1956.1 205.943C1946.99 202.525 1930.92 200.816 1907.91 200.816H1780.76Z" fill="white"/>
<path d="M35.2273 659.091H77.2727L176.136 900.568H179.545L278.409 659.091H320.455V950H287.5V728.977H284.659L193.75 950H161.932L71.0227 728.977H68.1818V950H35.2273V659.091ZM391.087 950V659.091H566.655V690.341H426.314V788.636H557.564V819.886H426.314V918.75H568.928V950H391.087ZM860.831 659.091V950H826.74L668.217 721.591H665.376V950H630.149V659.091H664.24L823.331 888.068H826.172V659.091H860.831Z" fill="#7D7D7C"/>
<path d="M1670.17 649.201V659.277H1669.38C1669.12 657.344 1668.66 655.804 1667.98 654.658C1667.32 653.512 1666.38 652.603 1665.15 651.93C1663.91 651.257 1662.64 650.92 1661.32 650.92C1659.83 650.92 1658.6 651.378 1657.63 652.295C1656.65 653.197 1656.17 654.229 1656.17 655.389C1656.17 656.277 1656.47 657.086 1657.09 657.816C1657.98 658.891 1660.09 660.323 1663.43 662.113C1666.15 663.574 1668 664.699 1668.99 665.486C1669.99 666.26 1670.76 667.176 1671.29 668.236C1671.84 669.296 1672.11 670.406 1672.11 671.566C1672.11 673.772 1671.25 675.677 1669.53 677.281C1667.82 678.871 1665.63 679.666 1662.93 679.666C1662.09 679.666 1661.29 679.602 1660.55 679.473C1660.1 679.401 1659.18 679.143 1657.78 678.699C1656.39 678.241 1655.51 678.012 1655.13 678.012C1654.78 678.012 1654.49 678.119 1654.28 678.334C1654.07 678.549 1653.92 678.993 1653.82 679.666H1653.03V669.676H1653.82C1654.2 671.767 1654.7 673.335 1655.33 674.381C1655.96 675.412 1656.92 676.271 1658.21 676.959C1659.51 677.646 1660.94 677.99 1662.48 677.99C1664.27 677.99 1665.68 677.518 1666.71 676.572C1667.76 675.627 1668.28 674.51 1668.28 673.221C1668.28 672.505 1668.08 671.781 1667.68 671.051C1667.29 670.32 1666.69 669.64 1665.86 669.01C1665.3 668.58 1663.77 667.671 1661.28 666.281C1658.79 664.878 1657.01 663.76 1655.95 662.93C1654.91 662.099 1654.11 661.182 1653.57 660.18C1653.02 659.177 1652.75 658.074 1652.75 656.871C1652.75 654.78 1653.55 652.982 1655.16 651.479C1656.76 649.96 1658.8 649.201 1661.28 649.201C1662.83 649.201 1664.47 649.581 1666.2 650.34C1667 650.698 1667.57 650.877 1667.9 650.877C1668.27 650.877 1668.57 650.77 1668.8 650.555C1669.04 650.326 1669.24 649.874 1669.38 649.201H1670.17ZM1681.58 652.854V659.32H1686.18V660.824H1681.58V673.586C1681.58 674.861 1681.76 675.72 1682.12 676.164C1682.49 676.608 1682.96 676.83 1683.54 676.83C1684.01 676.83 1684.47 676.687 1684.91 676.4C1685.36 676.1 1685.7 675.663 1685.94 675.09H1686.78C1686.28 676.493 1685.57 677.553 1684.65 678.27C1683.74 678.971 1682.79 679.322 1681.82 679.322C1681.16 679.322 1680.51 679.143 1679.88 678.785C1679.25 678.413 1678.79 677.89 1678.49 677.217C1678.19 676.529 1678.04 675.477 1678.04 674.059V660.824H1674.92V660.115C1675.71 659.8 1676.51 659.27 1677.33 658.525C1678.16 657.766 1678.9 656.871 1679.54 655.84C1679.87 655.296 1680.33 654.3 1680.92 652.854H1681.58ZM1687 659.32H1696.17V660.115H1695.72C1695.07 660.115 1694.59 660.258 1694.26 660.545C1693.94 660.817 1693.79 661.161 1693.79 661.576C1693.79 662.135 1694.02 662.908 1694.49 663.896L1699.29 673.822L1703.69 662.951C1703.93 662.364 1704.05 661.784 1704.05 661.211C1704.05 660.953 1704 660.76 1703.9 660.631C1703.79 660.473 1703.61 660.352 1703.37 660.266C1703.12 660.165 1702.69 660.115 1702.08 660.115V659.32H1708.48V660.115C1707.95 660.173 1707.54 660.287 1707.26 660.459C1706.97 660.631 1706.65 660.953 1706.31 661.426C1706.18 661.626 1705.94 662.178 1705.58 663.08L1697.57 682.717C1696.79 684.622 1695.78 686.061 1694.52 687.035C1693.27 688.009 1692.07 688.496 1690.91 688.496C1690.06 688.496 1689.37 688.253 1688.82 687.766C1688.28 687.279 1688.01 686.72 1688.01 686.09C1688.01 685.488 1688.2 685.001 1688.59 684.629C1688.99 684.271 1689.53 684.092 1690.22 684.092C1690.69 684.092 1691.34 684.249 1692.15 684.564C1692.73 684.779 1693.08 684.887 1693.23 684.887C1693.66 684.887 1694.12 684.665 1694.62 684.221C1695.14 683.777 1695.65 682.917 1696.17 681.643L1697.57 678.227L1690.5 663.381C1690.28 662.937 1689.94 662.385 1689.47 661.727C1689.11 661.225 1688.82 660.889 1688.59 660.717C1688.26 660.488 1687.73 660.287 1687 660.115V659.32ZM1716.88 648.449V674.553C1716.88 675.785 1716.97 676.601 1717.14 677.002C1717.32 677.403 1717.6 677.711 1717.98 677.926C1718.35 678.126 1719.04 678.227 1720.06 678.227V679H1710.41V678.227C1711.32 678.227 1711.93 678.133 1712.26 677.947C1712.59 677.761 1712.85 677.453 1713.04 677.023C1713.22 676.594 1713.31 675.77 1713.31 674.553V656.678C1713.31 654.458 1713.26 653.097 1713.16 652.596C1713.06 652.08 1712.9 651.729 1712.67 651.543C1712.46 651.357 1712.18 651.264 1711.83 651.264C1711.46 651.264 1710.99 651.378 1710.41 651.607L1710.05 650.855L1715.91 648.449H1716.88ZM1725.67 666.732C1725.65 669.654 1726.36 671.946 1727.79 673.607C1729.23 675.269 1730.91 676.1 1732.84 676.1C1734.13 676.1 1735.25 675.749 1736.2 675.047C1737.15 674.331 1737.96 673.113 1738.6 671.395L1739.27 671.824C1738.97 673.786 1738.09 675.577 1736.65 677.195C1735.2 678.799 1733.39 679.602 1731.21 679.602C1728.85 679.602 1726.82 678.685 1725.13 676.852C1723.46 675.004 1722.62 672.526 1722.62 669.418C1722.62 666.052 1723.48 663.431 1725.2 661.555C1726.93 659.664 1729.1 658.719 1731.71 658.719C1733.91 658.719 1735.72 659.449 1737.14 660.91C1738.56 662.357 1739.27 664.298 1739.27 666.732H1725.67ZM1725.67 665.486H1734.78C1734.71 664.226 1734.56 663.338 1734.33 662.822C1733.97 662.02 1733.43 661.39 1732.71 660.932C1732.01 660.473 1731.28 660.244 1730.5 660.244C1729.31 660.244 1728.25 660.71 1727.3 661.641C1726.37 662.557 1725.83 663.839 1725.67 665.486ZM1764.06 676.164C1762.04 677.725 1760.77 678.628 1760.26 678.871C1759.48 679.229 1758.66 679.408 1757.79 679.408C1756.43 679.408 1755.3 678.943 1754.41 678.012C1753.54 677.081 1753.1 675.856 1753.1 674.338C1753.1 673.378 1753.32 672.548 1753.75 671.846C1754.34 670.872 1755.35 669.955 1756.8 669.096C1758.26 668.236 1760.68 667.191 1764.06 665.959V665.186C1764.06 663.223 1763.75 661.877 1763.12 661.146C1762.5 660.416 1761.6 660.051 1760.41 660.051C1759.51 660.051 1758.79 660.294 1758.26 660.781C1757.72 661.268 1757.44 661.827 1757.44 662.457L1757.49 663.703C1757.49 664.362 1757.31 664.87 1756.97 665.229C1756.64 665.587 1756.2 665.766 1755.66 665.766C1755.13 665.766 1754.69 665.579 1754.35 665.207C1754.02 664.835 1753.86 664.326 1753.86 663.682C1753.86 662.45 1754.49 661.318 1755.75 660.287C1757.01 659.256 1758.78 658.74 1761.05 658.74C1762.8 658.74 1764.23 659.034 1765.35 659.621C1766.19 660.065 1766.82 660.76 1767.22 661.705C1767.48 662.321 1767.61 663.581 1767.61 665.486V672.168C1767.61 674.044 1767.64 675.197 1767.71 675.627C1767.78 676.042 1767.9 676.322 1768.06 676.465C1768.23 676.608 1768.42 676.68 1768.64 676.68C1768.87 676.68 1769.07 676.63 1769.24 676.529C1769.54 676.343 1770.12 675.82 1770.98 674.961V676.164C1769.37 678.312 1767.84 679.387 1766.38 679.387C1765.68 679.387 1765.12 679.143 1764.71 678.656C1764.29 678.169 1764.07 677.339 1764.06 676.164ZM1764.06 674.768V667.27C1761.9 668.129 1760.5 668.738 1759.87 669.096C1758.74 669.726 1757.93 670.385 1757.44 671.072C1756.96 671.76 1756.71 672.512 1756.71 673.328C1756.71 674.359 1757.02 675.219 1757.64 675.906C1758.25 676.579 1758.96 676.916 1759.76 676.916C1760.85 676.916 1762.28 676.2 1764.06 674.768ZM1778.2 662.908C1780.5 660.13 1782.7 658.74 1784.79 658.74C1785.87 658.74 1786.79 659.012 1787.56 659.557C1788.34 660.087 1788.95 660.967 1789.41 662.199C1789.73 663.059 1789.88 664.376 1789.88 666.152V674.553C1789.88 675.799 1789.99 676.644 1790.19 677.088C1790.34 677.446 1790.59 677.725 1790.94 677.926C1791.3 678.126 1791.95 678.227 1792.89 678.227V679H1783.16V678.227H1783.57C1784.49 678.227 1785.12 678.09 1785.48 677.818C1785.85 677.532 1786.11 677.117 1786.25 676.572C1786.31 676.357 1786.34 675.684 1786.34 674.553V666.496C1786.34 664.706 1786.1 663.41 1785.63 662.607C1785.17 661.791 1784.39 661.383 1783.29 661.383C1781.58 661.383 1779.89 662.314 1778.2 664.176V674.553C1778.2 675.885 1778.28 676.708 1778.43 677.023C1778.63 677.439 1778.91 677.747 1779.25 677.947C1779.61 678.133 1780.32 678.227 1781.4 678.227V679H1771.67V678.227H1772.1C1773.1 678.227 1773.77 677.976 1774.12 677.475C1774.47 676.959 1774.65 675.985 1774.65 674.553V667.248C1774.65 664.885 1774.6 663.445 1774.48 662.93C1774.38 662.414 1774.22 662.063 1773.99 661.877C1773.77 661.691 1773.48 661.598 1773.11 661.598C1772.7 661.598 1772.22 661.705 1771.67 661.92L1771.34 661.146L1777.27 658.74H1778.2V662.908ZM1808.36 676.787C1807.4 677.79 1806.46 678.513 1805.55 678.957C1804.63 679.387 1803.64 679.602 1802.58 679.602C1800.43 679.602 1798.56 678.706 1796.95 676.916C1795.35 675.111 1794.55 672.798 1794.55 669.977C1794.55 667.155 1795.43 664.577 1797.21 662.242C1798.99 659.893 1801.27 658.719 1804.06 658.719C1805.8 658.719 1807.23 659.27 1808.36 660.373V656.742C1808.36 654.493 1808.3 653.111 1808.19 652.596C1808.09 652.08 1807.92 651.729 1807.7 651.543C1807.47 651.357 1807.18 651.264 1806.84 651.264C1806.46 651.264 1805.97 651.378 1805.35 651.607L1805.07 650.855L1810.94 648.449H1811.91V671.201C1811.91 673.507 1811.96 674.918 1812.06 675.434C1812.17 675.935 1812.34 676.286 1812.57 676.486C1812.82 676.687 1813.1 676.787 1813.41 676.787C1813.8 676.787 1814.31 676.665 1814.96 676.422L1815.19 677.174L1809.35 679.602H1808.36V676.787ZM1808.36 675.283V665.143C1808.28 664.169 1808.02 663.281 1807.59 662.479C1807.16 661.676 1806.59 661.075 1805.87 660.674C1805.17 660.258 1804.48 660.051 1803.81 660.051C1802.55 660.051 1801.42 660.617 1800.43 661.748C1799.13 663.238 1798.48 665.415 1798.48 668.279C1798.48 671.173 1799.11 673.393 1800.37 674.939C1801.63 676.472 1803.03 677.238 1804.58 677.238C1805.88 677.238 1807.14 676.587 1808.36 675.283ZM1846.26 649.201V659.277H1845.46C1845.21 657.344 1844.74 655.804 1844.07 654.658C1843.41 653.512 1842.46 652.603 1841.23 651.93C1840 651.257 1838.73 650.92 1837.41 650.92C1835.92 650.92 1834.69 651.378 1833.71 652.295C1832.74 653.197 1832.25 654.229 1832.25 655.389C1832.25 656.277 1832.56 657.086 1833.18 657.816C1834.06 658.891 1836.18 660.323 1839.51 662.113C1842.24 663.574 1844.09 664.699 1845.08 665.486C1846.08 666.26 1846.85 667.176 1847.38 668.236C1847.92 669.296 1848.19 670.406 1848.19 671.566C1848.19 673.772 1847.33 675.677 1845.62 677.281C1843.91 678.871 1841.71 679.666 1839.02 679.666C1838.17 679.666 1837.38 679.602 1836.63 679.473C1836.19 679.401 1835.27 679.143 1833.86 678.699C1832.47 678.241 1831.59 678.012 1831.22 678.012C1830.86 678.012 1830.58 678.119 1830.36 678.334C1830.16 678.549 1830.01 678.993 1829.91 679.666H1829.12V669.676H1829.91C1830.28 671.767 1830.78 673.335 1831.41 674.381C1832.04 675.412 1833 676.271 1834.29 676.959C1835.6 677.646 1837.02 677.99 1838.57 677.99C1840.36 677.99 1841.77 677.518 1842.8 676.572C1843.85 675.627 1844.37 674.51 1844.37 673.221C1844.37 672.505 1844.17 671.781 1843.77 671.051C1843.38 670.32 1842.77 669.64 1841.94 669.01C1841.38 668.58 1839.86 667.671 1837.37 666.281C1834.87 664.878 1833.1 663.76 1832.04 662.93C1830.99 662.099 1830.2 661.182 1829.65 660.18C1829.11 659.177 1828.84 658.074 1828.84 656.871C1828.84 654.78 1829.64 652.982 1831.24 651.479C1832.85 649.96 1834.89 649.201 1837.37 649.201C1838.91 649.201 1840.55 649.581 1842.29 650.34C1843.09 650.698 1843.65 650.877 1843.98 650.877C1844.35 650.877 1844.66 650.77 1844.88 650.555C1845.13 650.326 1845.32 649.874 1845.46 649.201H1846.26ZM1856.96 648.449C1857.56 648.449 1858.07 648.664 1858.48 649.094C1858.91 649.509 1859.13 650.018 1859.13 650.619C1859.13 651.221 1858.91 651.736 1858.48 652.166C1858.07 652.596 1857.56 652.811 1856.96 652.811C1856.36 652.811 1855.84 652.596 1855.41 652.166C1854.98 651.736 1854.77 651.221 1854.77 650.619C1854.77 650.018 1854.98 649.509 1855.39 649.094C1855.82 648.664 1856.34 648.449 1856.96 648.449ZM1858.74 658.74V674.553C1858.74 675.785 1858.83 676.608 1859 677.023C1859.19 677.424 1859.45 677.725 1859.79 677.926C1860.15 678.126 1860.8 678.227 1861.73 678.227V679H1852.17V678.227C1853.13 678.227 1853.77 678.133 1854.1 677.947C1854.43 677.761 1854.69 677.453 1854.88 677.023C1855.08 676.594 1855.18 675.77 1855.18 674.553V666.969C1855.18 664.835 1855.11 663.452 1854.98 662.822C1854.88 662.364 1854.72 662.049 1854.51 661.877C1854.29 661.691 1854 661.598 1853.63 661.598C1853.23 661.598 1852.74 661.705 1852.17 661.92L1851.87 661.146L1857.8 658.74H1858.74ZM1870.04 662.93C1871.48 661.497 1872.32 660.674 1872.58 660.459C1873.22 659.915 1873.92 659.492 1874.66 659.191C1875.41 658.891 1876.14 658.74 1876.88 658.74C1878.11 658.74 1879.17 659.098 1880.05 659.814C1880.94 660.531 1881.54 661.569 1881.84 662.93C1883.31 661.211 1884.56 660.087 1885.58 659.557C1886.59 659.012 1887.64 658.74 1888.71 658.74C1889.76 658.74 1890.68 659.012 1891.48 659.557C1892.3 660.087 1892.95 660.96 1893.42 662.178C1893.73 663.008 1893.89 664.312 1893.89 666.088V674.553C1893.89 675.785 1893.98 676.63 1894.17 677.088C1894.31 677.403 1894.58 677.675 1894.96 677.904C1895.35 678.119 1895.98 678.227 1896.86 678.227V679H1887.14V678.227H1887.55C1888.4 678.227 1889.06 678.062 1889.53 677.732C1889.86 677.503 1890.1 677.138 1890.24 676.637C1890.3 676.393 1890.32 675.699 1890.32 674.553V666.088C1890.32 664.484 1890.13 663.352 1889.74 662.693C1889.19 661.777 1888.29 661.318 1887.06 661.318C1886.3 661.318 1885.53 661.512 1884.76 661.898C1884 662.271 1883.08 662.973 1881.99 664.004L1881.95 664.24L1881.99 665.164V674.553C1881.99 675.899 1882.06 676.737 1882.2 677.066C1882.36 677.396 1882.65 677.675 1883.06 677.904C1883.48 678.119 1884.19 678.227 1885.19 678.227V679H1875.24V678.227C1876.33 678.227 1877.08 678.098 1877.48 677.84C1877.89 677.582 1878.18 677.195 1878.34 676.68C1878.41 676.436 1878.44 675.727 1878.44 674.553V666.088C1878.44 664.484 1878.21 663.331 1877.73 662.629C1877.1 661.712 1876.22 661.254 1875.09 661.254C1874.32 661.254 1873.55 661.462 1872.79 661.877C1871.6 662.507 1870.69 663.216 1870.04 664.004V674.553C1870.04 675.842 1870.13 676.68 1870.3 677.066C1870.49 677.453 1870.75 677.747 1871.1 677.947C1871.45 678.133 1872.17 678.227 1873.24 678.227V679H1863.51V678.227C1864.41 678.227 1865.04 678.133 1865.4 677.947C1865.76 677.747 1866.03 677.439 1866.22 677.023C1866.4 676.594 1866.5 675.77 1866.5 674.553V667.033C1866.5 664.87 1866.43 663.474 1866.3 662.844C1866.2 662.371 1866.05 662.049 1865.83 661.877C1865.62 661.691 1865.32 661.598 1864.95 661.598C1864.55 661.598 1864.07 661.705 1863.51 661.92L1863.19 661.146L1869.12 658.74H1870.04V662.93ZM1897.03 661.275L1903.09 658.826H1903.9V663.424C1904.92 661.691 1905.94 660.48 1906.95 659.793C1907.98 659.091 1909.07 658.74 1910.2 658.74C1912.17 658.74 1913.82 659.514 1915.14 661.061C1916.76 662.951 1917.57 665.415 1917.57 668.451C1917.57 671.846 1916.59 674.653 1914.64 676.873C1913.04 678.692 1911.02 679.602 1908.59 679.602C1907.53 679.602 1906.61 679.451 1905.84 679.15C1905.26 678.936 1904.62 678.506 1903.9 677.861V683.855C1903.9 685.202 1903.98 686.054 1904.14 686.412C1904.31 686.785 1904.6 687.078 1905 687.293C1905.41 687.508 1906.16 687.615 1907.23 687.615V688.41H1896.92V687.615H1897.46C1898.24 687.63 1898.92 687.479 1899.48 687.164C1899.75 687.007 1899.96 686.749 1900.1 686.391C1900.26 686.047 1900.34 685.159 1900.34 683.727V665.121C1900.34 663.846 1900.28 663.037 1900.16 662.693C1900.05 662.35 1899.86 662.092 1899.61 661.92C1899.36 661.748 1899.03 661.662 1898.6 661.662C1898.25 661.662 1897.82 661.762 1897.29 661.963L1897.03 661.275ZM1903.9 664.691V672.039C1903.9 673.629 1903.97 674.674 1904.1 675.176C1904.3 676.007 1904.78 676.737 1905.56 677.367C1906.34 677.997 1907.33 678.312 1908.52 678.312C1909.95 678.312 1911.11 677.754 1912 676.637C1913.16 675.176 1913.74 673.12 1913.74 670.471C1913.74 667.463 1913.08 665.15 1911.77 663.531C1910.85 662.414 1909.76 661.855 1908.5 661.855C1907.81 661.855 1907.13 662.027 1906.46 662.371C1905.94 662.629 1905.09 663.402 1903.9 664.691ZM1927.21 648.449V674.553C1927.21 675.785 1927.3 676.601 1927.47 677.002C1927.66 677.403 1927.94 677.711 1928.31 677.926C1928.68 678.126 1929.38 678.227 1930.39 678.227V679H1920.75V678.227C1921.65 678.227 1922.26 678.133 1922.59 677.947C1922.92 677.761 1923.18 677.453 1923.37 677.023C1923.55 676.594 1923.65 675.77 1923.65 674.553V656.678C1923.65 654.458 1923.6 653.097 1923.5 652.596C1923.4 652.08 1923.23 651.729 1923 651.543C1922.79 651.357 1922.51 651.264 1922.16 651.264C1921.79 651.264 1921.32 651.378 1920.75 651.607L1920.38 650.855L1926.25 648.449H1927.21ZM1937.7 648.449C1938.3 648.449 1938.81 648.664 1939.22 649.094C1939.65 649.509 1939.87 650.018 1939.87 650.619C1939.87 651.221 1939.65 651.736 1939.22 652.166C1938.81 652.596 1938.3 652.811 1937.7 652.811C1937.1 652.811 1936.58 652.596 1936.15 652.166C1935.72 651.736 1935.51 651.221 1935.51 650.619C1935.51 650.018 1935.71 649.509 1936.13 649.094C1936.56 648.664 1937.08 648.449 1937.7 648.449ZM1939.48 658.74V674.553C1939.48 675.785 1939.57 676.608 1939.74 677.023C1939.92 677.424 1940.19 677.725 1940.53 677.926C1940.89 678.126 1941.54 678.227 1942.47 678.227V679H1932.91V678.227C1933.87 678.227 1934.51 678.133 1934.84 677.947C1935.17 677.761 1935.43 677.453 1935.61 677.023C1935.81 676.594 1935.91 675.77 1935.91 674.553V666.969C1935.91 664.835 1935.85 663.452 1935.72 662.822C1935.62 662.364 1935.46 662.049 1935.25 661.877C1935.03 661.691 1934.74 661.598 1934.37 661.598C1933.97 661.598 1933.48 661.705 1932.91 661.92L1932.61 661.146L1938.54 658.74H1939.48ZM1961.65 671.523C1961.12 674.116 1960.08 676.114 1958.54 677.518C1956.99 678.907 1955.28 679.602 1953.4 679.602C1951.17 679.602 1949.22 678.663 1947.56 676.787C1945.9 674.911 1945.07 672.376 1945.07 669.182C1945.07 666.088 1945.98 663.574 1947.82 661.641C1949.66 659.707 1951.88 658.74 1954.46 658.74C1956.39 658.74 1957.98 659.256 1959.22 660.287C1960.47 661.304 1961.09 662.364 1961.09 663.467C1961.09 664.011 1960.91 664.455 1960.56 664.799C1960.21 665.128 1959.73 665.293 1959.1 665.293C1958.25 665.293 1957.61 665.021 1957.18 664.477C1956.94 664.176 1956.78 663.603 1956.69 662.758C1956.62 661.913 1956.33 661.268 1955.83 660.824C1955.33 660.395 1954.63 660.18 1953.75 660.18C1952.31 660.18 1951.16 660.71 1950.29 661.77C1949.13 663.173 1948.55 665.028 1948.55 667.334C1948.55 669.683 1949.12 671.76 1950.27 673.564C1951.43 675.355 1952.99 676.25 1954.95 676.25C1956.35 676.25 1957.61 675.77 1958.73 674.811C1959.52 674.152 1960.28 672.956 1961.03 671.223L1961.65 671.523ZM1969.49 648.449C1970.1 648.449 1970.6 648.664 1971.02 649.094C1971.45 649.509 1971.66 650.018 1971.66 650.619C1971.66 651.221 1971.45 651.736 1971.02 652.166C1970.6 652.596 1970.1 652.811 1969.49 652.811C1968.89 652.811 1968.38 652.596 1967.95 652.166C1967.52 651.736 1967.3 651.221 1967.3 650.619C1967.3 650.018 1967.51 649.509 1967.93 649.094C1968.36 648.664 1968.88 648.449 1969.49 648.449ZM1971.28 658.74V674.553C1971.28 675.785 1971.36 676.608 1971.54 677.023C1971.72 677.424 1971.99 677.725 1972.33 677.926C1972.69 678.126 1973.33 678.227 1974.26 678.227V679H1964.7V678.227C1965.66 678.227 1966.31 678.133 1966.64 677.947C1966.97 677.761 1967.22 677.453 1967.41 677.023C1967.61 676.594 1967.71 675.77 1967.71 674.553V666.969C1967.71 664.835 1967.65 663.452 1967.52 662.822C1967.42 662.364 1967.26 662.049 1967.04 661.877C1966.83 661.691 1966.54 661.598 1966.16 661.598C1965.76 661.598 1965.28 661.705 1964.7 661.92L1964.4 661.146L1970.33 658.74H1971.28ZM1982.45 652.854V659.32H1987.05V660.824H1982.45V673.586C1982.45 674.861 1982.63 675.72 1982.99 676.164C1983.36 676.608 1983.83 676.83 1984.4 676.83C1984.88 676.83 1985.34 676.687 1985.78 676.4C1986.22 676.1 1986.57 675.663 1986.81 675.09H1987.65C1987.15 676.493 1986.44 677.553 1985.52 678.27C1984.6 678.971 1983.66 679.322 1982.69 679.322C1982.03 679.322 1981.38 679.143 1980.75 678.785C1980.12 678.413 1979.66 677.89 1979.36 677.217C1979.05 676.529 1978.9 675.477 1978.9 674.059V660.824H1975.79V660.115C1976.58 659.8 1977.38 659.27 1978.2 658.525C1979.03 657.766 1979.76 656.871 1980.41 655.84C1980.74 655.296 1981.2 654.3 1981.78 652.854H1982.45ZM1987.86 659.32H1997.04V660.115H1996.59C1995.94 660.115 1995.45 660.258 1995.12 660.545C1994.81 660.817 1994.65 661.161 1994.65 661.576C1994.65 662.135 1994.89 662.908 1995.36 663.896L2000.15 673.822L2004.56 662.951C2004.8 662.364 2004.92 661.784 2004.92 661.211C2004.92 660.953 2004.87 660.76 2004.77 660.631C2004.66 660.473 2004.48 660.352 2004.23 660.266C2003.99 660.165 2003.56 660.115 2002.95 660.115V659.32H2009.35V660.115C2008.82 660.173 2008.41 660.287 2008.12 660.459C2007.84 660.631 2007.52 660.953 2007.18 661.426C2007.05 661.626 2006.81 662.178 2006.45 663.08L1998.43 682.717C1997.66 684.622 1996.64 686.061 1995.38 687.035C1994.14 688.009 1992.93 688.496 1991.77 688.496C1990.93 688.496 1990.23 688.253 1989.69 687.766C1989.15 687.279 1988.87 686.72 1988.87 686.09C1988.87 685.488 1989.07 685.001 1989.45 684.629C1989.85 684.271 1990.4 684.092 1991.09 684.092C1991.56 684.092 1992.2 684.249 1993.02 684.564C1993.59 684.779 1993.95 684.887 1994.09 684.887C1994.52 684.887 1994.99 684.665 1995.49 684.221C1996.01 683.777 1996.52 682.917 1997.04 681.643L1998.43 678.227L1991.37 663.381C1991.15 662.937 1990.81 662.385 1990.33 661.727C1989.98 661.225 1989.68 660.889 1989.45 660.717C1989.12 660.488 1988.59 660.287 1987.86 660.115V659.32Z" fill="white"/>
</svg>
